<svg id="Layer_1" data-name="Layer 1" xmlns="http://www.w3.org/2000/svg" viewBox="0 0 200 200"><defs><style>.cls-1{fill:#fff;}</style></defs><title>test icons</title><path class="cls-1" d="M118.38,69.9l-17-25.53-17,25.53,7,12.31h20l7-12.31h-4.27l-4.92,8.61H93.54l-4.83-8.45,12.65-19L114.11,69.9"/><path class="cls-1" d="M80.07,135.42v3.71h40.22v-3.71H80.07Z"/><path class="cls-1" d="M74.77,142.09v18h50.84v-18H74.77Zm3.71,3.71H121.9v10.59H78.48V145.8Z"/><path class="cls-1" d="M73.48,163.07v3.71h53.41v-3.71H73.48Z"/><path class="cls-1" d="M89.87,90.53l-7,41.92h35.93l-6.89-41.92h-22ZM93,94.24h15.71l5.68,34.5H87.2Z"/><path class="cls-1" d="M86.95,83.86v3.71h28.28V83.86H86.95Z"/><path class="cls-1" d="M101.07,33.89a8.16,8.16,0,0,0-5,14.61l2.27-2.93a4.45,4.45,0,1,1,5.46,0l2.28,2.93A8.16,8.16,0,0,0,101.07,33.89Z"/></svg>