<svg id="Layer_1" data-name="Layer 1" xmlns="http://www.w3.org/2000/svg" viewBox="0 0 200 200"><defs><style>.cls-1{fill:#fff;}</style></defs><title>test icons</title><path class="cls-1" d="M110.32,70a3.5,3.5,0,0,0-2.79,2.24l-21,52.44A3.5,3.5,0,1,0,93,127.25L114,74.8A3.5,3.5,0,0,0,110.32,70Z"/><path class="cls-1" d="M75.47,78.74a3.5,3.5,0,0,0-1.53.55L46,96.76a3.5,3.5,0,0,0,0,6l28,17.48a3.51,3.51,0,0,0,3.71-6L54.44,99.77,77.65,85.24A3.5,3.5,0,0,0,75.47,78.74Z"/><path class="cls-1" d="M124.58,78.74a3.5,3.5,0,0,0-1.69,6.5l23.22,14.53-23.22,14.48a3.51,3.51,0,0,0,3.71,6l28-17.48a3.5,3.5,0,0,0,0-6l-28-17.48A3.5,3.5,0,0,0,124.58,78.74Z"/></svg>