<svg id="Layer_1" data-name="Layer 1" xmlns="http://www.w3.org/2000/svg" viewBox="0 0 200 200"><defs><style>.cls-1{fill:#fff;}</style></defs><title>test icons</title><path class="cls-1" d="M100,41.86A37.69,37.69,0,0,0,62.31,79.5h0c0,7.44,1.41,14.87,5.75,21.21l0.07,0.09,10.29,13,2.35,15.6a1.7,1.7,0,0,0,1.68,1.44H98.33L86,133.43a1.7,1.7,0,0,0,.7,3.32L114,131a1.7,1.7,0,0,0,.42-0.14h3.12a1.7,1.7,0,0,0,1.68-1.45l2.31-15.59,10.25-13,0.07-.09c4.33-6.33,5.79-13.76,5.79-21.21A37.69,37.69,0,0,0,100,41.86ZM83.91,127.42l-2.2-14.6a1.7,1.7,0,0,0-.35-0.8L70.86,98.77C67,93.18,65.72,86.51,65.71,79.5h0a34.29,34.29,0,0,1,68.58,0c0,7-1.37,13.67-5.19,19.27L118.63,112a1.7,1.7,0,0,0-.35.8l-2.16,14.59H83.91Zm29.72,7.17h0l-0.29,0L86,140.42a1.7,1.7,0,1,0,.62,3.34l0.08,0,27.39-5.8A1.7,1.7,0,0,0,113.63,134.58Zm-5.16,23h5.23a1.7,1.7,0,0,0,1.7-1.7V142.94a1.7,1.7,0,0,0-1.7-1.7h0l-0.3,0L86,147.08a1.7,1.7,0,0,0-1.35,1.66v7.12a1.7,1.7,0,0,0,1.7,1.7h22.17ZM112,145v9.12H88v-4Z"/></svg>