<svg id="Layer_1" data-name="Layer 1" xmlns="http://www.w3.org/2000/svg" viewBox="0 0 200 200"><defs><style>.cls-1{fill:#fff;}</style></defs><title>test icons</title><path class="cls-1" d="M135,139.68a8,8,0,0,0,4.82,1.86h0a5.2,5.2,0,0,0,4.37-2.29,8.31,8.31,0,0,0,1.31-4.84V106.08l8.85-3.32a2.64,2.64,0,0,0,1.71-2.47V85.77a2.64,2.64,0,0,0-1.71-2.47L145.53,80V53.32c0-4.92-2.85-7.12-5.67-7.12A8.07,8.07,0,0,0,135,48.07l-0.13.11L112.79,67.26c-3.61,2.72-6.81,4-10,4H54.35c-5.66,0-10.45,5-10.45,11v23.19a10.57,10.57,0,0,0,10.45,10.67h4.4l5,37.31a2.64,2.64,0,0,0,2.62,2.29H87.46a2.64,2.64,0,0,0,2.62-3L85.2,116.13h17.55c3.1,0,6.3,1.32,10.07,4.16l22.08,19.28ZM150.81,87.6V98.46l-5.28,2V85.62ZM49.19,105.46V82.27c0-3.06,2.41-5.73,5.17-5.73H94.06v34.32H54.35A5.29,5.29,0,0,1,49.19,105.46Zm35.26,45H68.66l-4.58-34.32H79.87Zm31.63-34.31c-3-2.27-7.64-5.29-13.33-5.29H99.34V76.53h3.41c4.4,0,8.75-1.67,13.29-5.11l0.13-.11,22.12-19.08a3.51,3.51,0,0,1,1.57-.77,3,3,0,0,1,.4,1.86v81.09a3.52,3.52,0,0,1-.36,1.85h0a3,3,0,0,1-1.56-.74l-22.08-19.27Z"/></svg>