<svg id="Layer_1" data-name="Layer 1" xmlns="http://www.w3.org/2000/svg" viewBox="0 0 200 200"><defs><style>.cls-1{fill:#fff;}</style></defs><title>test icons</title><path class="cls-1" d="M65.83,145.81a2.28,2.28,0,0,0,2.28,2.28h77.54a2.28,2.28,0,0,0,2.28-2.28V62.35a2.28,2.28,0,0,0-.67-1.61L125.83,39.3a2.28,2.28,0,0,0-1.61-.67H68.11a2.28,2.28,0,0,0-2.28,2.28v104.9Zm77.54-2.28h-73V43.19h50.17V63.71A2.28,2.28,0,0,0,122.84,66h20.52v77.54Zm-1.87-82.1H125.12V45.06Z"/><path class="cls-1" d="M134.17,159.57a2.28,2.28,0,0,1-2.28,2.28H54.35a2.28,2.28,0,0,1-2.28-2.28V54.67a2.28,2.28,0,0,1,2.28-2.28h11.4V57H56.63V157.29h73v-9.12h4.56v11.4Z"/><rect class="cls-1" x="78.08" y="79.59" width="22.43" height="3.51"/><rect class="cls-1" x="78.08" y="87.96" width="57.61" height="3.51"/><rect class="cls-1" x="78.08" y="96.34" width="57.61" height="3.51"/><rect class="cls-1" x="78.08" y="104.71" width="57.61" height="3.51"/><rect class="cls-1" x="78.08" y="113.09" width="57.61" height="3.51"/><rect class="cls-1" x="78.08" y="121.46" width="35.1" height="3.51"/><rect class="cls-1" x="78.08" y="129.84" width="20.78" height="3.51"/><circle class="cls-1" cx="82.87" cy="66.22" r="4.79"/></svg>