<svg id="Layer_1" data-name="Layer 1" xmlns="http://www.w3.org/2000/svg" viewBox="0 0 200 200"><defs><style>.cls-1{fill:#fff;}</style></defs><title>test icons</title><path class="cls-1" d="M161.48,46.41h-123a2.32,2.32,0,0,0-2.32,2.32v81.2a2.32,2.32,0,0,0,2.32,2.32h58v18.64H63.79a2.32,2.32,0,1,0,0,4.64h70.1a2.32,2.32,0,0,0,0-4.64H101.16V132.24h60.32a2.32,2.32,0,0,0,2.32-2.32V48.73A2.32,2.32,0,0,0,161.48,46.41Zm-2.32,81.2H40.84V51H159.16V127.6Z"/><path class="cls-1" d="M57.55,75.64a2.32,2.32,0,0,0,1.82.93h0a2.32,2.32,0,0,0,1.81-.87l9.28-11.6a2.32,2.32,0,0,0-3.62-2.9l-7.41,9.26L54.3,63.57a2.32,2.32,0,0,0-3.71,2.78Z"/><path class="cls-1" d="M80.28,67.28h65a2.32,2.32,0,0,0,0-4.64h-65A2.32,2.32,0,1,0,80.28,67.28Z"/><path class="cls-1" d="M80.28,76.56H136a2.32,2.32,0,0,0,0-4.64H80.28A2.32,2.32,0,0,0,80.28,76.56Z"/><path class="cls-1" d="M57.55,96.52a2.32,2.32,0,0,0,1.82.93h0a2.32,2.32,0,0,0,1.81-.87L70.49,85a2.32,2.32,0,1,0-3.62-2.9l-7.41,9.26L54.3,84.45a2.32,2.32,0,0,0-3.71,2.78Z"/><path class="cls-1" d="M80.28,88.16h65a2.32,2.32,0,0,0,0-4.64h-65A2.32,2.32,0,1,0,80.28,88.16Z"/><path class="cls-1" d="M80.28,97.44H122a2.32,2.32,0,0,0,0-4.64H80.28A2.32,2.32,0,1,0,80.28,97.44Z"/><path class="cls-1" d="M80.28,109h65a2.32,2.32,0,0,0,0-4.64h-65A2.32,2.32,0,1,0,80.28,109Z"/><path class="cls-1" d="M80.28,118.32H122a2.32,2.32,0,1,0,0-4.64H80.28A2.32,2.32,0,1,0,80.28,118.32Z"/><circle class="cls-1" cx="59.4" cy="106.72" r="2.32"/><circle class="cls-1" cx="59.4" cy="118.32" r="2.32"/></svg>